<svg width="42" height="48" xmlns="http://www.w3.org/2000/svg">
 <g fill="#ffffff">
  <title>Layer 1</title>
  <g transform="rotate(-180 22.090038299560547,24.260005950927734) " id="svg_1">
   <g id="svg_2">
    <path id="svg_3" d="m16.97678,27.35786c0,-0.37555 -0.32186,-0.67999 -0.71905,-0.67999h-3.67514c-0.3972,0 -0.71907,0.30437 -0.71907,0.67999v3.47549c0,0.37555 0.32187,0.68 0.71907,0.68h3.67514c0.39711,0 0.71905,-0.30437 0.71905,-0.68v-3.47549l0,0z"/>
    <path id="svg_4" d="m11.86352,22.52238c0,-0.37563 -0.32185,-0.68 -0.71905,-0.68h-3.67538c-0.39713,0 -0.71907,0.30437 -0.71907,0.68v3.47541c0,0.37556 0.32194,0.68007 0.71907,0.68007h3.67513c0.39714,0 0.71906,-0.30444 0.71906,-0.68007v-3.47541h0.00024l0,0z"/>
    <path id="svg_5" d="m17.69585,26.67786h3.67513c0.39713,0 0.71905,-0.30444 0.71905,-0.68007v-3.47541c0,-0.37563 -0.32192,-0.68 -0.71905,-0.68h-3.67513c-0.39713,0 -0.71907,0.30437 -0.71907,0.68v3.47541c0,0.37563 0.32194,0.68007 0.71907,0.68007z"/>
    <path id="svg_6" d="m16.97678,17.68667c0,-0.37556 -0.32186,-0.68 -0.71905,-0.68h-3.67514c-0.3972,0 -0.71907,0.30445 -0.71907,0.68v3.47548c0,0.37556 0.32187,0.68 0.71907,0.68h3.67514c0.39711,0 0.71905,-0.30444 0.71905,-0.68v-3.47548l0,0z"/>
    <path id="svg_7" d="m22.09003,21.16237c0,0.37563 0.32187,0.68 0.719,0.68h3.67521c0.39713,0 0.71906,-0.30437 0.71906,-0.68v-3.4757c0,-0.37556 -0.32186,-0.68 -0.71906,-0.68h-3.67521c-0.39713,0 -0.719,0.30445 -0.719,0.68v3.4757l0,0z"/>
    <path id="svg_8" d="m21.37098,12.17119h-3.67513c-0.39713,0 -0.71907,0.30437 -0.71907,0.68v3.47548c0,0.37556 0.32194,0.68 0.71907,0.68h3.67513c0.39713,0 0.71905,-0.30437 0.71905,-0.68v-3.47548c0,-0.37563 -0.32192,-0.68 -0.71905,-0.68z"/>
    <path id="svg_9" d="m32.31671,12.85119c0,-0.37563 -0.32186,-0.68 -0.71906,-0.68h-3.67505c-0.39714,0 -0.71906,0.30437 -0.71906,0.68v3.47548c0,0.37556 0.32184,0.68 0.71906,0.68h3.67505c0.39713,0 0.71906,-0.30437 0.71906,-0.68v-3.47548l0,0z"/>
    <path id="svg_10" d="m22.80903,12.17119h3.67521c0.39713,0 0.71906,-0.30437 0.71906,-0.68v-3.47548c0,-0.37556 -0.32186,-0.68 -0.71906,-0.68h-3.67521c-0.39713,0 -0.719,0.30437 -0.719,0.68v3.47548c0,0.37563 0.32217,0.68 0.719,0.68z"/>
    <path id="svg_11" d="m36.71098,7.3357h-3.67505c-0.39729,0 -0.71922,0.30437 -0.71922,0.68v3.47548c0,0.37563 0.32185,0.68 0.71922,0.68h3.67505c0.39713,0 0.71907,-0.30437 0.71907,-0.68v-3.47548c0,-0.37556 -0.32194,-0.68 -0.71907,-0.68z"/>
    <path id="svg_12" d="m32.31671,3.18c0,-0.37563 -0.32186,-0.68 -0.71906,-0.68h-3.67505c-0.39714,0 -0.71906,0.30437 -0.71906,0.68v3.47548c0,0.37556 0.32184,0.68 0.71906,0.68h3.67505c0.39713,0 0.71906,-0.30437 0.71906,-0.68v-3.47548l0,0z"/>
    <path id="svg_13" d="m22.80903,31.51334h3.67521c0.39713,0 0.71906,-0.30437 0.71906,-0.68v-3.47549c0,-0.37555 -0.32186,-0.67999 -0.71906,-0.67999h-3.67521c-0.39713,0 -0.719,0.30437 -0.719,0.67999v3.47549c0,0.37555 0.32217,0.68 0.719,0.68z"/>
    <path id="svg_14" d="m22.09003,32.19334c0,-0.37555 -0.32192,-0.68007 -0.71905,-0.68007h-3.67513c-0.39713,0 -0.71907,0.30444 -0.71907,0.68007v3.47548c0,0.37556 0.32194,0.68001 0.71907,0.68001h3.67513c0.39713,0 0.71905,-0.30438 0.71905,-0.68001v-3.47548l0,0z"/>
    <path id="svg_15" d="m27.92268,36.34905h3.67505c0.39713,0 0.71907,-0.30437 0.71907,-0.68v-3.47549c0,-0.37556 -0.32187,-0.68007 -0.71907,-0.68007h-3.67505c-0.39713,0 -0.71908,0.30445 -0.71908,0.68007v3.47549c0,0.3754 0.32186,0.68 0.71908,0.68z"/>
    <path id="svg_16" d="m27.2036,37.02905c0,-0.37555 -0.322,-0.68 -0.71921,-0.68h-3.67506c-0.39713,0 -0.71906,0.30437 -0.71906,0.68v3.47549c0,0.37563 0.32193,0.68007 0.71906,0.68007h3.67506c0.39713,0 0.71921,-0.30437 0.71921,-0.68007v-3.47549l0,0z"/>
    <path id="svg_17" d="m36.71098,36.34905h-3.67505c-0.39729,0 -0.71922,0.30437 -0.71922,0.68v3.47549c0,0.37563 0.32185,0.68007 0.71922,0.68007h3.67505c0.39713,0 0.71907,-0.30437 0.71907,-0.68007v-3.47549c0,-0.37562 -0.32194,-0.68 -0.71907,-0.68z"/>
    <path id="svg_18" d="m31.59772,41.18454h-3.67505c-0.39713,0 -0.71908,0.30436 -0.71908,0.67999v3.47548c0,0.37556 0.32186,0.67999 0.71908,0.67999h3.67505c0.39713,0 0.71907,-0.30437 0.71907,-0.67999v-3.47548c-0.00008,-0.37556 -0.32194,-0.67999 -0.71907,-0.67999z"/>
   </g>
  </g>
  <g id="svg_19"/>
  <g id="svg_20"/>
  <g id="svg_21"/>
  <g id="svg_22"/>
  <g id="svg_23"/>
  <g id="svg_24"/>
  <g id="svg_25"/>
  <g id="svg_26"/>
  <g id="svg_27"/>
  <g id="svg_28"/>
  <g id="svg_29"/>
  <g id="svg_30"/>
  <g id="svg_31"/>
  <g id="svg_32"/>
  <g id="svg_33"/>
 </g>
</svg>